<mxfile host="Electron" agent="Mozilla/5.0 (Windows NT 10.0; Win64; x64) AppleWebKit/537.36 (KHTML, like Gecko) draw.io/27.0.9 Chrome/134.0.6998.205 Electron/35.4.0 Safari/537.36" version="27.0.9">
  <diagram name="Page-1" id="JOU_ey2y7Ef1f-dNLchi">
    <mxGraphModel dx="2595" dy="849" grid="1" gridSize="10" guides="1" tooltips="1" connect="1" arrows="1" fold="1" page="1" pageScale="1" pageWidth="1169" pageHeight="827" math="0" shadow="0">
      <root>
        <mxCell id="0" />
        <mxCell id="1" style="locked=1;" parent="0" />
        <mxCell id="p6v5R7OxqHlD4omIs34c-1" style="edgeStyle=orthogonalEdgeStyle;rounded=0;orthogonalLoop=1;jettySize=auto;html=1;exitX=1;exitY=0.5;exitDx=0;exitDy=0;entryX=1;entryY=0.25;entryDx=0;entryDy=0;" edge="1" parent="1" source="HMszOZsf1zMzUZQNafwa-1" target="uq6fjOshCbotcb-DYdTj-1">
          <mxGeometry relative="1" as="geometry">
            <Array as="points">
              <mxPoint x="370" y="160" />
              <mxPoint x="370" y="595" />
            </Array>
          </mxGeometry>
        </mxCell>
        <mxCell id="HMszOZsf1zMzUZQNafwa-1" value="Recipes" style="rounded=1;whiteSpace=wrap;html=1;fillColor=#1ba1e2;fontColor=#ffffff;strokeColor=#006EAF;fontSize=17;" parent="1" vertex="1">
          <mxGeometry x="160" y="130" width="120" height="60" as="geometry" />
        </mxCell>
        <mxCell id="p6v5R7OxqHlD4omIs34c-3" style="edgeStyle=orthogonalEdgeStyle;rounded=0;orthogonalLoop=1;jettySize=auto;html=1;exitX=1;exitY=0.75;exitDx=0;exitDy=0;entryX=0;entryY=0.25;entryDx=0;entryDy=0;" edge="1" parent="1" source="HMszOZsf1zMzUZQNafwa-2" target="uq6fjOshCbotcb-DYdTj-1">
          <mxGeometry relative="1" as="geometry">
            <Array as="points">
              <mxPoint x="310" y="495" />
              <mxPoint x="310" y="545" />
              <mxPoint x="140" y="545" />
              <mxPoint x="140" y="595" />
            </Array>
          </mxGeometry>
        </mxCell>
        <mxCell id="HMszOZsf1zMzUZQNafwa-2" value="Carts" style="rounded=1;whiteSpace=wrap;html=1;fillColor=#1ba1e2;fontColor=#ffffff;strokeColor=#006EAF;fontSize=17;" parent="1" vertex="1">
          <mxGeometry x="160" y="450" width="120" height="60" as="geometry" />
        </mxCell>
        <mxCell id="HMszOZsf1zMzUZQNafwa-11" style="edgeStyle=orthogonalEdgeStyle;rounded=0;orthogonalLoop=1;jettySize=auto;html=1;exitX=0;exitY=0.5;exitDx=0;exitDy=0;entryX=0.5;entryY=0;entryDx=0;entryDy=0;startArrow=classic;startFill=1;" parent="1" source="HMszOZsf1zMzUZQNafwa-3" target="HMszOZsf1zMzUZQNafwa-9" edge="1">
          <mxGeometry relative="1" as="geometry" />
        </mxCell>
        <mxCell id="p6v5R7OxqHlD4omIs34c-2" style="edgeStyle=orthogonalEdgeStyle;rounded=0;orthogonalLoop=1;jettySize=auto;html=1;exitX=1;exitY=0.5;exitDx=0;exitDy=0;entryX=1;entryY=0.75;entryDx=0;entryDy=0;" edge="1" parent="1" source="HMszOZsf1zMzUZQNafwa-3" target="uq6fjOshCbotcb-DYdTj-1">
          <mxGeometry relative="1" as="geometry">
            <Array as="points">
              <mxPoint x="350" y="320" />
              <mxPoint x="350" y="625" />
            </Array>
          </mxGeometry>
        </mxCell>
        <mxCell id="HMszOZsf1zMzUZQNafwa-3" value="Ingredients" style="rounded=1;whiteSpace=wrap;html=1;fillColor=#1ba1e2;fontColor=#ffffff;strokeColor=#006EAF;fontSize=17;" parent="1" vertex="1">
          <mxGeometry x="160" y="290" width="120" height="60" as="geometry" />
        </mxCell>
        <mxCell id="HMszOZsf1zMzUZQNafwa-4" value="&lt;h1 style=&quot;margin-top: 0px;&quot;&gt;Recipes&lt;/h1&gt;&lt;p&gt;Name&lt;/p&gt;&lt;p&gt;Description&lt;/p&gt;&lt;p&gt;Ingredients&lt;/p&gt;&lt;p&gt;Content&lt;/p&gt;" style="text;html=1;overflow=hidden;rounded=0;spacing=2;whiteSpace=wrap;strokeColor=default;" parent="1" vertex="1">
          <mxGeometry x="290" y="30" width="180" height="160" as="geometry" />
        </mxCell>
        <mxCell id="HMszOZsf1zMzUZQNafwa-6" value="&lt;h1 style=&quot;margin-top: 0px;&quot;&gt;Ingredients&lt;/h1&gt;&lt;p&gt;Name&lt;/p&gt;&lt;p&gt;Shelf life&lt;/p&gt;&lt;p&gt;IsAllergy&lt;/p&gt;" style="text;html=1;overflow=hidden;rounded=0;spacing=2;whiteSpace=wrap;strokeColor=default;" parent="1" vertex="1">
          <mxGeometry x="470" y="230" width="180" height="120" as="geometry" />
        </mxCell>
        <mxCell id="HMszOZsf1zMzUZQNafwa-7" value="&lt;h1 style=&quot;margin-top: 0px;&quot;&gt;&lt;span style=&quot;background-color: transparent; color: light-dark(rgb(0, 0, 0), rgb(255, 255, 255));&quot;&gt;Carts&lt;/span&gt;&lt;/h1&gt;&lt;p style=&quot;margin-top: 0px;&quot;&gt;&lt;span style=&quot;background-color: transparent; color: light-dark(rgb(0, 0, 0), rgb(255, 255, 255)); font-size: 12px; font-weight: normal;&quot;&gt;Name&lt;/span&gt;&lt;/p&gt;&lt;p&gt;Ingredient&lt;/p&gt;" style="text;html=1;overflow=hidden;rounded=0;spacing=2;whiteSpace=wrap;strokeColor=default;" parent="1" vertex="1">
          <mxGeometry x="290" y="390" width="180" height="120" as="geometry" />
        </mxCell>
        <mxCell id="HMszOZsf1zMzUZQNafwa-13" style="edgeStyle=orthogonalEdgeStyle;rounded=0;orthogonalLoop=1;jettySize=auto;html=1;exitX=0.5;exitY=0;exitDx=0;exitDy=0;entryX=0;entryY=0.5;entryDx=0;entryDy=0;startArrow=classic;startFill=1;" parent="1" source="HMszOZsf1zMzUZQNafwa-8" target="HMszOZsf1zMzUZQNafwa-1" edge="1">
          <mxGeometry relative="1" as="geometry" />
        </mxCell>
        <mxCell id="HMszOZsf1zMzUZQNafwa-14" style="edgeStyle=orthogonalEdgeStyle;rounded=0;orthogonalLoop=1;jettySize=auto;html=1;exitX=0.5;exitY=1;exitDx=0;exitDy=0;entryX=0;entryY=0.5;entryDx=0;entryDy=0;startArrow=classic;startFill=1;" parent="1" source="HMszOZsf1zMzUZQNafwa-8" target="HMszOZsf1zMzUZQNafwa-3" edge="1">
          <mxGeometry relative="1" as="geometry" />
        </mxCell>
        <mxCell id="HMszOZsf1zMzUZQNafwa-8" value="RecipeIngredient" style="rounded=1;whiteSpace=wrap;html=1;fillColor=#f0a30a;fontColor=#000000;strokeColor=#BD7000;" parent="1" vertex="1">
          <mxGeometry x="45" y="210" width="115" height="60" as="geometry" />
        </mxCell>
        <mxCell id="HMszOZsf1zMzUZQNafwa-12" style="edgeStyle=orthogonalEdgeStyle;rounded=0;orthogonalLoop=1;jettySize=auto;html=1;exitX=0.5;exitY=1;exitDx=0;exitDy=0;entryX=0;entryY=0.5;entryDx=0;entryDy=0;startArrow=classic;startFill=1;" parent="1" source="HMszOZsf1zMzUZQNafwa-9" target="HMszOZsf1zMzUZQNafwa-2" edge="1">
          <mxGeometry relative="1" as="geometry" />
        </mxCell>
        <mxCell id="HMszOZsf1zMzUZQNafwa-9" value="CartIngredient" style="rounded=1;whiteSpace=wrap;html=1;fillColor=#f0a30a;fontColor=#000000;strokeColor=#BD7000;" parent="1" vertex="1">
          <mxGeometry x="45" y="384" width="115" height="60" as="geometry" />
        </mxCell>
        <mxCell id="bbvA6-XSSEJl-vqrYHCZ-1" value="&lt;h1 style=&quot;margin-top: 0px;&quot;&gt;RecipeIngredient&lt;/h1&gt;&lt;p&gt;RecipeId&lt;/p&gt;&lt;p&gt;&lt;span style=&quot;background-color: transparent; color: light-dark(rgb(0, 0, 0), rgb(255, 255, 255));&quot;&gt;IngredientId&lt;/span&gt;&lt;/p&gt;&lt;p&gt;Amount&lt;/p&gt;&lt;p&gt;Unit&lt;/p&gt;" style="text;html=1;overflow=hidden;rounded=0;spacing=2;whiteSpace=wrap;strokeColor=default;" parent="1" vertex="1">
          <mxGeometry x="-180" y="110" width="210" height="160" as="geometry" />
        </mxCell>
        <mxCell id="bbvA6-XSSEJl-vqrYHCZ-2" value="&lt;h1 style=&quot;margin-top: 0px;&quot;&gt;CartIngredient&lt;/h1&gt;&lt;p&gt;&lt;span style=&quot;background-color: transparent; color: light-dark(rgb(0, 0, 0), rgb(255, 255, 255));&quot;&gt;IngredientId&lt;/span&gt;&lt;/p&gt;&lt;p&gt;Amount&lt;/p&gt;&lt;p&gt;IsBought&lt;/p&gt;" style="text;html=1;overflow=hidden;rounded=0;spacing=2;whiteSpace=wrap;strokeColor=default;" parent="1" vertex="1">
          <mxGeometry x="-180" y="384" width="210" height="160" as="geometry" />
        </mxCell>
        <mxCell id="bbvA6-XSSEJl-vqrYHCZ-4" value="購物清單需要一群一群，&lt;br&gt;可各自新增購物清單。" style="text;html=1;align=center;verticalAlign=middle;whiteSpace=wrap;rounded=0;strokeColor=default;strokeWidth=2;" parent="1" vertex="1">
          <mxGeometry x="500" y="399" width="170" height="71" as="geometry" />
        </mxCell>
        <mxCell id="bbvA6-XSSEJl-vqrYHCZ-6" style="rounded=0;orthogonalLoop=1;jettySize=auto;html=1;exitX=0.5;exitY=0;exitDx=0;exitDy=0;entryX=0.75;entryY=1;entryDx=0;entryDy=0;strokeWidth=2;strokeColor=#FFB700;" parent="1" source="bbvA6-XSSEJl-vqrYHCZ-5" target="HMszOZsf1zMzUZQNafwa-7" edge="1">
          <mxGeometry relative="1" as="geometry" />
        </mxCell>
        <mxCell id="bbvA6-XSSEJl-vqrYHCZ-5" value="But how to import ingrdients from recipes?" style="text;html=1;align=center;verticalAlign=middle;whiteSpace=wrap;rounded=0;strokeColor=#FFB700;strokeWidth=2;" parent="1" vertex="1">
          <mxGeometry x="390" y="560" width="170" height="71" as="geometry" />
        </mxCell>
        <mxCell id="uq6fjOshCbotcb-DYdTj-1" value="Users" style="rounded=1;whiteSpace=wrap;html=1;fillColor=#1ba1e2;fontColor=#ffffff;strokeColor=#006EAF;fontSize=17;" parent="1" vertex="1">
          <mxGeometry x="160" y="580" width="120" height="60" as="geometry" />
        </mxCell>
        <mxCell id="uq6fjOshCbotcb-DYdTj-3" style="edgeStyle=orthogonalEdgeStyle;rounded=0;orthogonalLoop=1;jettySize=auto;html=1;exitX=0.5;exitY=0;exitDx=0;exitDy=0;entryX=1;entryY=0.5;entryDx=0;entryDy=0;startArrow=classic;startFill=1;" parent="1" source="uq6fjOshCbotcb-DYdTj-2" target="uq6fjOshCbotcb-DYdTj-1" edge="1">
          <mxGeometry relative="1" as="geometry" />
        </mxCell>
        <mxCell id="uq6fjOshCbotcb-DYdTj-2" value="dotnet Identity" style="rounded=1;whiteSpace=wrap;html=1;fillColor=#1ba1e2;fontColor=#ffffff;strokeColor=#006EAF;fontSize=17;" parent="1" vertex="1">
          <mxGeometry x="240" y="670" width="120" height="60" as="geometry" />
        </mxCell>
      </root>
    </mxGraphModel>
  </diagram>
</mxfile>
